<svg width="46" height="48" viewBox="0 0 46 48" fill="none" xmlns="http://www.w3.org/2000/svg">
<g clip-path="url(#clip0_112_1813)">
<path d="M0.677238 24C0.674329 17.6902 3.08117 11.6332 7.37642 7.14104C11.6717 2.64891 17.5095 0.0833136 23.6253 0L23.2641 0C17.2086 0.174116 11.4578 2.77807 7.2344 7.2582C3.01098 11.7383 0.648071 17.7413 0.648071 23.9907C0.648071 30.2401 3.01098 36.243 7.2344 40.7232C11.4578 45.2033 17.2086 47.8072 23.2641 47.9814H23.675C17.5536 47.9115 11.7058 45.3543 7.40043 40.8648C3.09502 36.3752 0.67924 30.3154 0.677238 24Z" fill="url(#paint0_radial_112_1813)"/>
<path d="M40.5361 40.0621C38.0444 42.1708 35.1316 43.6852 32.0062 44.4969C30.2542 44.9627 26.2895 45.1863 26.1902 45.1863C14.3504 44.9953 4.81351 35.3385 4.81351 23.4456C4.81351 11.5528 14.3729 1.86331 26.2398 1.70959C26.3392 1.70959 28.5744 1.77481 29.5678 1.91456C32.7869 2.35742 35.871 3.52988 38.5989 5.34779C35.4512 2.71197 31.6876 0.97545 27.6848 0.312072C26.4656 0.107103 23.7292 0.00927734 23.6208 0.00927734C17.4532 0.0160726 11.5407 2.55017 7.18422 7.0541C2.8277 11.558 0.383929 17.6629 0.390516 24.0256C0.397103 30.3883 2.85351 36.4877 7.21935 40.9821C11.5852 45.4764 17.5028 47.9974 23.6705 47.9906C25.9022 47.9401 28.1219 47.6386 30.2903 47.0916C35.6504 45.5217 40.2851 42.0167 43.3493 37.2158C42.4979 38.2513 41.5563 39.2041 40.5361 40.0621Z" fill="url(#paint1_radial_112_1813)"/>
<path d="M30.9044 29.0589C31.4151 28.929 31.8769 28.6457 32.2316 28.2449C32.5862 27.8442 32.8177 27.344 32.8968 26.8075C32.9758 26.2711 32.899 25.7225 32.6758 25.2311C32.4527 24.7397 32.0934 24.3276 31.6432 24.0469C31.1931 23.7662 30.6724 23.6295 30.1469 23.6541C29.6215 23.6786 29.1149 23.8634 28.6912 24.1849C28.2675 24.5065 27.9458 24.9504 27.7667 25.4606C27.5875 25.9708 27.5591 26.5243 27.6848 27.0512C27.7684 27.4011 27.9179 27.7307 28.125 28.021C28.332 28.3113 28.5925 28.5567 28.8914 28.7432C29.1904 28.9296 29.5221 29.0535 29.8675 29.1076C30.2129 29.1618 30.5652 29.1453 30.9044 29.0589Z" fill="url(#paint2_radial_112_1813)"/>
<path style="mix-blend-mode:lighten" opacity="0.7" d="M32.7107 26.5527C32.7817 26.2278 32.7843 25.8909 32.7183 25.5649C32.6523 25.2388 32.5193 24.9312 32.3283 24.6627C32.1372 24.3942 31.8926 24.171 31.6108 24.0084C31.3291 23.8457 31.0168 23.7472 30.6951 23.7197C30.3733 23.6921 30.0496 23.736 29.7457 23.8485C29.4418 23.961 29.1648 24.1394 28.9334 24.3717C28.7021 24.604 28.5217 24.8848 28.4045 25.1951C28.2872 25.5055 28.2359 25.8382 28.2539 26.1707C28.15 27.4471 32.6069 27.8291 32.7107 26.5527Z" fill="url(#paint3_linear_112_1813)"/>
<path d="M43.8009 22.0156C43.8009 21.9364 43.8009 21.8526 43.8009 21.7687C43.8009 21.7687 43.8009 21.7408 43.8009 21.7268C42.8075 12.3774 34.8104 5.25008 25.3187 5.05908H25.1923C35.1762 5.24076 43.2184 13.5001 43.2184 23.6926C43.1941 27.5625 42.0042 31.3289 39.8134 34.4704C37.6226 37.6118 34.5392 39.9729 30.9902 41.2268C30.3038 41.4614 29.6059 41.6589 28.8995 41.8184C29.119 41.8347 29.3393 41.8347 29.5588 41.8184C29.8568 41.7532 30.1503 41.6786 30.4619 41.5948L31.0625 41.4224L31.1889 41.3805C31.347 41.3293 31.505 41.2827 31.6405 41.2268C35.1967 39.9769 38.2874 37.6157 40.4836 34.471C42.6797 31.3264 43.8723 27.5544 43.8957 23.6786C43.8927 23.1103 43.8611 22.556 43.8009 22.0156Z" fill="url(#paint4_radial_112_1813)"/>
<path d="M28.8996 41.8185C28.1089 41.7151 27.3595 41.3954 26.729 40.8924C26.0986 40.3895 25.6101 39.7216 25.3142 38.9582C24.7227 37.5607 24.5511 36.07 25.102 34.8681C26.7005 31.3883 30.8368 31.9147 30.8368 31.9147C30.3939 31.8957 29.9504 31.9254 29.5137 32.0032C26.1315 32.5436 25.2871 35.1104 25.2871 35.1104C28.1184 37.556 29.9472 36.9737 32.0198 35.0219C33.668 33.4706 36.7928 34.9101 36.7928 34.9101C36.7928 34.9101 35.2981 31.8309 32.8868 30.466C31.6281 29.82 30.1883 29.655 28.8228 30.0001C27.8151 30.3293 26.9014 30.9095 26.1627 31.6895C25.4239 32.4695 24.8828 33.4252 24.5872 34.4722C24.0889 35.9669 24.1484 37.5995 24.7543 39.0514C25.0375 39.7757 25.4858 40.419 26.0612 40.9266C26.6365 41.4343 27.3221 41.7913 28.0597 41.9675C28.1635 41.9908 28.2719 42.0048 28.3758 42.0188C28.7777 41.9629 29.175 41.8883 29.5724 41.8045C29.3488 41.8261 29.1239 41.8308 28.8996 41.8185Z" fill="url(#paint5_radial_112_1813)"/>
<path d="M27.3462 42.1537L27.1927 42.1025C26.4672 41.8457 25.8067 41.4246 25.2597 40.87C24.7127 40.3153 24.2932 39.6413 24.0318 38.8975C22.7178 35.5435 25.2871 30.6428 25.2871 30.6428C32.9636 14.1475 14.1608 11.3711 14.1608 11.3711C14.1608 11.3711 19.5478 15.8664 17.4255 20.4037C15.6193 24.2515 15.4071 28.7608 22.2707 33.4751C22.2707 33.4751 25.5716 26.7205 23.0429 20.3571C23.0429 20.3571 25.6619 24.0838 23.5983 31.1832C22.0359 36.545 22.8171 40.1273 24.4382 42.191C25.4071 42.2501 26.379 42.2377 27.3462 42.1537Z" fill="url(#paint6_radial_112_1813)"/>
<path d="M26.9172 3.76855C25.2238 3.80871 23.5398 4.04149 21.8959 4.46265C19.6745 5.06081 17.5851 6.09348 15.7412 7.50458C14.5702 8.37989 13.4978 9.38772 12.5442 10.5092C15.0015 8.01764 18.0863 6.28606 21.4489 5.51079C22.6873 5.24351 23.9458 5.08764 25.2103 5.04495H25.3187C34.8014 5.23595 42.8075 12.3633 43.7919 21.7127C43.7919 21.7127 43.7919 21.7406 43.7919 21.7546C43.7919 21.8384 43.7919 21.9223 43.7919 22.0015C43.8415 22.5465 43.8731 23.0962 43.8731 23.6552C43.858 27.5286 42.6748 31.3012 40.4878 34.4498C38.3007 37.5983 35.2181 39.9668 31.6676 41.2266C31.5095 41.2825 31.3515 41.3291 31.216 41.3804L31.0896 41.4223C30.8909 41.4828 30.6877 41.5434 30.489 41.5946C30.191 41.6785 29.8975 41.753 29.5859 41.8182C29.1885 41.9021 28.7912 41.9766 28.3893 42.0325C27.9874 42.0884 27.7029 42.121 27.3597 42.149C26.388 42.2336 25.4116 42.2461 24.4382 42.1863C22.9167 42.0919 21.406 41.8628 19.9226 41.5015C19.5659 41.413 19.2092 41.3198 18.8569 41.208C21.4091 42.3788 24.1534 43.0395 26.9443 43.1552C28.2381 43.1798 29.53 43.0422 30.7916 42.7453C35.4146 41.7509 39.5164 39.0243 42.3044 35.0922C45.0924 31.16 46.3689 26.3014 45.8872 21.455C45.4054 16.6086 43.1997 12.1184 39.6961 8.85185C36.1925 5.58529 31.6396 3.77423 26.9172 3.76855Z" fill="url(#paint7_radial_112_1813)"/>
</g>
<defs>
<radialGradient id="paint0_radial_112_1813" cx="0" cy="0" r="1" gradientUnits="userSpaceOnUse" gradientTransform="translate(2.94405 12.4798) scale(11.5779 11.9441)">
<stop offset="0.03" stop-color="white"/>
<stop offset="0.34" stop-color="#861C24"/>
<stop offset="1" stop-color="#4E1B1F"/>
</radialGradient>
<radialGradient id="paint1_radial_112_1813" cx="0" cy="0" r="1" gradientUnits="userSpaceOnUse" gradientTransform="translate(1.50812 2.43164) scale(36.6754 37.8354)">
<stop offset="0.03" stop-color="white"/>
<stop offset="0.34" stop-color="#6D1C24"/>
<stop offset="1" stop-color="#761B1F"/>
</radialGradient>
<radialGradient id="paint2_radial_112_1813" cx="0" cy="0" r="1" gradientUnits="userSpaceOnUse" gradientTransform="translate(32.5978 21.9176) scale(6.75979 6.9736)">
<stop offset="0.03" stop-color="white"/>
<stop offset="0.34" stop-color="#6D1C24"/>
<stop offset="1" stop-color="#761B1F"/>
</radialGradient>
<linearGradient id="paint3_linear_112_1813" x1="30.9993" y1="24.0046" x2="30.3718" y2="26.6607" gradientUnits="userSpaceOnUse">
<stop offset="0.03" stop-color="white"/>
<stop offset="1" stop-color="#AD1B1F"/>
</linearGradient>
<radialGradient id="paint4_radial_112_1813" cx="0" cy="0" r="1" gradientUnits="userSpaceOnUse" gradientTransform="translate(42.2701 16.5839) scale(10.8057 11.1475)">
<stop offset="0.03" stop-color="white"/>
<stop offset="0.06" stop-color="#F5F9E5"/>
<stop offset="0.15" stop-color="#DDEBA7"/>
<stop offset="0.24" stop-color="#CBE076"/>
<stop offset="0.31" stop-color="#BDD952"/>
<stop offset="0.37" stop-color="#B5D43D"/>
<stop offset="0.41" stop-color="#B2D235"/>
<stop offset="1" stop-color="#005B2E"/>
</radialGradient>
<radialGradient id="paint5_radial_112_1813" cx="0" cy="0" r="1" gradientUnits="userSpaceOnUse" gradientTransform="translate(29.5408 26.4924) scale(10.0832 10.4022)">
<stop offset="0.03" stop-color="white"/>
<stop offset="0.41" stop-color="#B2D235"/>
<stop offset="1" stop-color="#005B2E"/>
</radialGradient>
<radialGradient id="paint6_radial_112_1813" cx="0" cy="0" r="1" gradientUnits="userSpaceOnUse" gradientTransform="translate(29.6672 21.3447) scale(16.0483 16.5559)">
<stop offset="0.03" stop-color="white"/>
<stop offset="0.41" stop-color="#B2D235"/>
<stop offset="1" stop-color="#005B2E"/>
</radialGradient>
<radialGradient id="paint7_radial_112_1813" cx="0" cy="0" r="1" gradientUnits="userSpaceOnUse" gradientTransform="translate(48.8086 13.2623) scale(23.35 24.0885)">
<stop offset="0.03" stop-color="white"/>
<stop offset="0.41" stop-color="#B2D235"/>
<stop offset="1" stop-color="#005B2E"/>
</radialGradient>
<clipPath id="clip0_112_1813">
<rect width="46" height="48" fill="white"/>
</clipPath>
</defs>
</svg>
