<svg width="92" height="74" viewBox="0 0 92 74" fill="none" xmlns="http://www.w3.org/2000/svg">
<path d="M1.046 9.25083V9.25C1.046 4.70311 4.70388 1 9.2 1H82.8C87.3026 1 91 4.70967 91 9.25V64.75C91 69.2903 87.3026 73 82.8 73H9.2C4.69739 73 1 69.2903 1 64.75L1.046 9.25083ZM48.9701 40.9455L48.9702 40.9454L81.4732 20.5148C82.0436 20.189 82.543 19.7519 82.9421 19.2293L82.1473 18.6223L82.9421 19.2293C83.3462 18.7001 83.6391 18.0943 83.8033 17.4486C83.9675 16.8029 83.9997 16.1305 83.898 15.472C83.7962 14.8135 83.5626 14.1823 83.211 13.6167C82.8594 13.0511 82.3971 12.5627 81.8517 12.1814C81.3064 11.8 80.6895 11.5336 80.0382 11.3987C79.387 11.2637 78.7152 11.263 78.0637 11.3966C77.4203 11.5286 76.8101 11.7888 76.269 12.1614L46 31.1938L15.731 12.1615C15.1899 11.7888 14.5797 11.5286 13.9363 11.3966L13.7354 12.3763L13.9363 11.3966C13.2848 11.263 12.613 11.2637 11.9618 11.3987L12.1647 12.3779L11.9618 11.3987C11.3105 11.5336 10.6936 11.8 10.1482 12.1814C9.60292 12.5627 9.1406 13.0511 8.78901 13.6167C8.43742 14.1823 8.2038 14.8135 8.10205 15.472C8.00029 16.1305 8.03248 16.8029 8.1967 17.4486C8.36091 18.0943 8.65381 18.7001 9.05793 19.2293C9.45699 19.7518 9.95636 20.189 10.5267 20.5148L43.0298 40.9454L43.0299 40.9455C44.8272 42.0748 47.1728 42.0748 48.9701 40.9455Z" stroke="white" stroke-width="2"/>
</svg>
